first trial
nRows=35
nColumns=38

# SIMM Motion File Header:
name Sujet_05_velo_80.mvnx
datacolumns 38
datarows 35
otherdata 1
range 0.0000 0.5670
endheader
time pelvis_tilt  pelvis_list  pelvis_rotation  pelvis_tx  pelvis_ty  pelvis_tz  hip_flexion_r  hip_adduction_r  hip_rotation_r  knee_angle_r  ankle_angle_r  subtalar_angle_r  mtp_angle_r  hip_flexion_l  hip_adduction_l  hip_rotation_l  knee_angle_l  ankle_angle_l  subtalar_angle_l  mtp_angle_l  lumbar_extension  lumbar_bending  lumbar_rotation  arm_flex_r  arm_add_r  arm_rot_r  elbow_flex_r  pro_sup_r  wrist_flex_r  wrist_dev_r  arm_flex_l  arm_add_l  arm_rot_l  elbow_flex_l  pro_sup_l  wrist_flex_l  wrist_dev_l
0.0000	-7.0041	-2.9990	-89.4149	0.0000	1.2500	-0.0000	77.4089	0.1857	-7.9942	103.3864	-10.9074	1.7296	0.0000	36.8127	-7.5387	-18.2552	32.0366	-13.0288	11.8833	-0.0000	-21.7105	3.0091	-0.0223	89.7870	-8.1615	21.9810	3.6387	68.9167	-59.6018	-36.1095	95.3635	-8.4237	28.4390	-1.8678	51.2255	-43.4437	-22.4667	
0.0170	-6.8654	-3.3058	-89.2144	0.0000	1.2500	-0.0000	78.9191	0.1523	-7.8678	102.4816	-11.5311	2.0524	0.0000	35.6338	-7.0765	-18.7333	32.1872	-13.2536	12.1674	-0.0000	-21.7908	3.1348	0.0415	89.6653	-8.1797	21.7868	3.7418	68.9721	-59.5598	-36.1578	95.1213	-8.3357	28.1313	-1.7970	51.4902	-43.4149	-22.4465	
0.0340	-6.7277	-3.6132	-89.0131	0.0000	1.2500	-0.0000	80.4288	0.1131	-7.7370	101.5773	-12.1572	2.3632	-0.0000	34.4580	-6.6126	-19.2057	32.3149	-13.4891	12.5136	0.0000	-21.8708	3.2606	0.1056	89.5433	-8.1974	21.5927	3.8446	69.0274	-59.5178	-36.2059	94.8790	-8.2477	27.8239	-1.7266	51.7550	-43.3860	-22.4262	
0.0510	-6.6226	-3.7598	-88.8205	0.0000	1.2500	-0.0000	81.6271	0.0922	-7.6886	100.2615	-12.5191	2.5308	0.0000	33.7885	-6.3038	-19.4696	33.4451	-13.5206	12.8136	-0.0000	-21.9463	3.2980	0.1463	89.4582	-8.2292	21.4098	3.9593	69.0311	-59.4943	-36.2511	94.7662	-8.1887	27.6735	-1.6654	51.9477	-43.3475	-22.3958	
0.0670	-6.5772	-3.6614	-88.6481	0.0000	1.2500	-0.0000	82.5232	0.1266	-7.7385	98.4112	-12.5182	2.4546	0.0000	33.8463	-6.2738	-19.4321	36.1222	-13.1846	12.9528	0.0000	-22.0188	3.2014	0.1621	89.4335	-8.2931	21.2316	4.1030	68.9672	-59.5000	-36.2932	94.8764	-8.1778	27.7937	-1.6099	52.0034	-43.2943	-22.3534	
0.0840	-6.5626	-3.4020	-88.4854	0.0000	1.2500	-0.0000	83.1089	0.1857	-7.8741	96.1503	-12.2486	2.2330	-0.0000	34.4091	-6.3980	-19.1930	39.8280	-12.6313	12.9671	-0.0000	-22.0880	3.0166	0.1539	89.4454	-8.3712	21.0642	4.2593	68.8519	-59.5242	-36.3326	95.1161	-8.1947	28.0704	-1.5633	51.9871	-43.2316	-22.3011	
0.1000	-6.5261	-3.0735	-88.3081	0.0000	1.2500	-0.0000	83.0484	0.1924	-8.1413	93.4358	-11.7324	2.0385	-0.0000	35.3122	-6.4617	-18.8430	44.0255	-12.1088	12.9670	-0.0000	-22.1468	2.7915	0.1018	89.4603	-8.4239	20.9385	4.3903	68.6820	-59.5536	-36.3676	95.3330	-8.2095	28.3179	-1.5445	52.0224	-43.1650	-22.2350	
0.1170	-6.4507	-2.6966	-88.1165	0.0000	1.2500	-0.0000	82.1753	0.1308	-8.5630	90.2063	-10.7746	1.8844	0.0000	36.5520	-6.3949	-18.3805	48.6852	-11.7431	13.0214	0.0000	-22.1923	2.5339	-0.0061	89.4916	-8.4295	20.8770	4.4807	68.4404	-59.5867	-36.4005	95.4667	-8.2212	28.4805	-1.5687	52.1397	-43.1002	-22.1553	
0.1340	-6.3525	-2.2510	-87.9113	0.0000	1.2500	-0.0000	80.6579	0.0194	-9.1270	86.5193	-9.5726	1.7829	-0.0000	38.1320	-6.2558	-17.8218	53.8493	-11.4064	13.0485	0.0000	-22.2284	2.2360	-0.1573	89.5265	-8.4103	20.8575	4.5459	68.1441	-59.6249	-36.4290	95.5773	-8.2311	28.6140	-1.6204	52.3088	-43.0317	-22.0617	
0.1500	-6.2289	-1.7670	-87.6707	0.0000	1.2500	-0.0000	78.6629	-0.1669	-9.8308	82.5048	-8.7374	1.8922	-0.0000	39.8944	-6.0266	-17.2873	59.1047	-10.9677	12.9666	-0.0000	-22.2568	1.9222	-0.3350	89.4923	-8.3926	20.8439	4.5944	67.8405	-59.6600	-36.4446	95.6932	-8.2142	28.7007	-1.6722	52.5623	-42.9481	-21.9492	
0.1670	-6.0551	-1.2380	-87.4000	0.0000	1.2500	-0.0000	76.1878	-0.4418	-10.7439	78.1454	-8.5338	2.3333	-0.0000	41.7855	-5.6828	-16.8325	64.4069	-10.3789	12.7274	-0.0000	-22.2795	1.5914	-0.5392	89.3239	-8.3757	20.8582	4.6261	67.5253	-59.6921	-36.4348	95.8206	-8.1635	28.6996	-1.7293	52.9418	-42.8378	-21.8067	
0.1840	-5.8545	-0.6714	-87.0953	0.0000	1.2500	-0.0000	73.2367	-0.7674	-11.8249	73.4348	-8.7007	2.9693	-0.0000	43.8559	-5.2501	-16.4238	69.7958	-9.6979	12.3807	-0.0000	-22.2956	1.2442	-0.7689	89.0866	-8.3587	20.8790	4.6399	67.2026	-59.7210	-36.4120	95.9530	-8.0861	28.6511	-1.7859	53.4058	-42.7127	-21.6455	
0.2000	-5.6949	-0.1190	-86.7196	0.0000	1.2500	-0.0000	69.9870	-1.0935	-12.9049	68.5260	-9.0605	3.5500	-0.0000	46.1027	-4.7883	-16.0414	74.9820	-8.9529	12.0101	0.0000	-22.3027	0.9086	-1.0056	88.9021	-8.3671	20.8046	4.6431	66.9329	-59.7376	-36.4049	96.0993	-7.9774	28.6592	-1.7995	53.8624	-42.5968	-21.4939	
0.2170	-5.6028	0.4048	-86.2360	0.0000	1.2500	-0.0000	66.4089	-1.4015	-14.0392	63.3671	-9.5201	3.9994	0.0000	48.5476	-4.2986	-15.7334	79.9216	-8.0684	11.6761	-0.0000	-22.3035	0.5931	-1.2531	88.8466	-8.3924	20.5526	4.6231	66.7811	-59.7344	-36.4194	96.2814	-7.8396	28.7795	-1.7276	54.2870	-42.4946	-21.3530	
0.2340	-5.5499	0.9152	-85.6797	0.0000	1.2500	-0.0000	62.5347	-1.6785	-15.2021	58.0104	-10.1756	4.3899	0.0000	51.1667	-3.7750	-15.4698	84.6572	-7.1186	11.3337	-0.0000	-22.2966	0.2896	-1.5083	88.8427	-8.4437	20.2048	4.5929	66.6821	-59.7187	-36.4497	96.4757	-7.6687	28.9559	-1.6145	54.7035	-42.4017	-21.2219	
0.2500	-5.5231	1.4061	-85.1219	0.0000	1.2500	-0.0000	58.6315	-1.9289	-16.0882	52.7987	-11.1303	4.6982	-0.0000	53.8913	-3.2560	-15.1004	89.0185	-6.3476	10.9213	-0.0000	-22.2728	0.0006	-1.7424	88.7804	-8.5731	19.9050	4.5981	66.5014	-59.7037	-36.5070	96.6232	-7.4514	29.1247	-1.5491	55.0922	-42.3290	-21.1268	
0.2670	-5.5326	1.8750	-84.5625	0.0000	1.2500	-0.0000	54.6620	-2.2051	-16.5561	47.6950	-12.5061	4.9165	-0.0000	56.7445	-2.7463	-14.5163	93.0110	-5.8458	10.3572	-0.0000	-22.2207	-0.2761	-1.9433	88.6193	-8.8254	19.7188	4.6590	66.1555	-59.6973	-36.6136	96.7082	-7.1618	29.2747	-1.5709	55.4445	-42.2887	-21.0830	
0.2830	-5.5687	2.3255	-84.0007	0.0000	1.2500	-0.0000	50.6534	-2.5129	-16.7539	42.7766	-14.1794	5.0777	0.0000	59.7055	-2.2167	-13.8302	96.6123	-5.5095	9.7381	-0.0000	-22.1510	-0.5387	-2.1232	88.3967	-9.1536	19.5781	4.7552	65.7281	-59.6913	-36.7472	96.7451	-6.8279	29.4170	-1.6403	55.7687	-42.2683	-21.0746	
0.3000	-5.5912	2.7571	-83.5072	0.0000	1.2500	-0.0000	46.9670	-2.8253	-16.7822	38.5613	-15.8858	5.2219	-0.0000	62.6411	-1.6647	-13.2099	99.6104	-5.2934	9.2653	-0.0000	-22.0866	-0.7781	-2.2890	88.1209	-9.4725	19.4274	4.8705	65.3354	-59.6745	-36.8521	96.7219	-6.5191	29.5217	-1.7269	56.0696	-42.2414	-21.0799	
0.3170	-5.5728	3.1723	-83.1030	0.0000	1.2500	-0.0000	43.6575	-3.1626	-16.5594	35.1381	-17.7039	5.4147	0.0000	65.5568	-1.0968	-12.6962	101.9679	-5.2337	9.0314	0.0000	-22.0314	-0.9953	-2.4419	87.7525	-9.7731	19.2515	5.0163	64.9844	-59.6462	-36.9078	96.6090	-6.2505	29.5728	-1.8439	56.3653	-42.1989	-21.1044	
0.3330	-5.5428	3.5682	-82.7678	0.0000	1.2500	-0.0000	40.6685	-3.5473	-16.1435	32.4152	-19.5616	5.6227	0.0000	68.4473	-0.5217	-12.2372	103.7314	-5.2999	8.9262	-0.0000	-21.9797	-1.1891	-2.5806	87.3321	-10.0634	19.0661	5.1810	64.6679	-59.6078	-36.9351	96.4382	-6.0084	29.5869	-1.9788	56.6376	-42.1499	-21.1425	
0.3500	-5.5466	3.9374	-82.5109	0.0000	1.2500	-0.0000	38.1985	-3.9247	-15.8194	30.6227	-20.9566	5.7011	-0.0000	71.1624	0.0402	-11.8457	104.8207	-5.3520	8.8428	-0.0000	-21.9379	-1.3461	-2.7090	86.9917	-10.2864	18.8653	5.3138	64.4805	-59.5511	-36.9399	96.2916	-5.8184	29.5832	-2.0615	56.8376	-42.0958	-21.1557	
0.3670	-5.6007	4.3061	-82.3513	0.0000	1.2500	-0.0000	36.2862	-4.2815	-15.6914	29.8100	-21.6551	5.5369	-0.0000	73.7652	0.5943	-11.4995	105.2194	-5.4244	8.7892	0.0000	-21.9084	-1.4687	-2.8352	86.7806	-10.4071	18.6007	5.3891	64.5195	-59.4591	-36.9159	96.1856	-5.6976	29.5733	-2.0521	56.9300	-42.0224	-21.1113	
0.3830	-5.6905	4.6487	-82.2694	0.0000	1.2500	-0.0000	34.8962	-4.6166	-15.6250	29.9171	-21.8783	5.2016	0.0000	76.1930	1.1242	-11.1975	104.9503	-5.4836	8.7436	-0.0000	-21.8875	-1.5540	-2.9515	86.6526	-10.4645	18.3233	5.4334	64.6880	-59.3488	-36.8692	96.1051	-5.6283	29.5461	-1.9891	56.9508	-41.9439	-21.0420	
0.4010	-5.8150	4.8797	-82.2157	0.0000	1.2500	-0.0000	34.1165	-4.8712	-15.5356	31.0054	-21.7984	4.7998	-0.0000	78.1070	1.5794	-10.9711	103.9906	-5.2790	8.5724	0.0000	-21.8731	-1.5809	-3.0388	86.5973	-10.5134	18.1765	5.4732	64.7894	-59.2637	-36.8257	96.0853	-5.5826	29.4874	-1.9197	56.9571	-41.9040	-21.0083	
0.4170	-6.0032	4.9945	-82.1703	0.0000	1.2500	-0.0000	34.0647	-5.0227	-15.4335	33.2326	-21.4001	4.2814	0.0000	79.4256	1.9596	-10.7798	102.2482	-4.6241	8.1827	0.0000	-21.8664	-1.5505	-3.0978	86.6289	-10.5614	18.2577	5.5302	64.7234	-59.2318	-36.7995	96.1780	-5.5590	29.3327	-1.8498	57.0285	-41.9235	-21.0390	
0.4340	-6.2268	4.9977	-82.1540	0.0000	1.2500	-0.0000	34.6239	-5.0880	-15.2914	36.4427	-20.7096	3.6689	0.0000	80.2282	2.2678	-10.6390	99.8199	-3.7047	7.7135	0.0000	-21.8663	-1.4616	-3.1276	86.7335	-10.6010	18.4697	5.5822	64.5901	-59.2250	-36.7766	96.3317	-5.5589	29.1466	-1.7736	57.0855	-41.9819	-21.1056	
0.4500	-6.3982	4.8184	-82.1801	0.0000	1.2500	-0.0000	35.5298	-5.0668	-14.9722	40.2313	-19.9508	3.1880	0.0000	80.4163	2.4599	-10.6613	96.9585	-2.8237	7.3718	0.0000	-21.8695	-1.2908	-3.1059	86.8588	-10.6624	18.6643	5.5883	64.4938	-59.2028	-36.7409	96.4269	-5.5596	29.1076	-1.7212	56.9464	-42.0614	-21.1824	
0.4670	-6.4881	4.3820	-82.2387	0.0000	1.2500	-0.0000	36.7333	-4.9278	-14.3744	44.5913	-19.1192	2.9827	-0.0000	79.9222	2.5222	-10.9309	93.6926	-1.9910	7.1604	-0.0000	-21.8728	-1.0019	-3.0162	86.9804	-10.7772	18.7704	5.5108	64.4562	-59.1373	-36.6921	96.3958	-5.5459	29.3799	-1.7070	56.4242	-42.1647	-21.2733	
0.4840	-6.5245	3.7628	-82.3403	0.0000	1.2500	-0.0000	38.2868	-4.6902	-13.6207	49.5128	-18.2084	2.9023	-0.0000	78.8162	2.4642	-11.3657	89.9768	-1.1965	7.0666	-0.0000	-21.8810	-0.6313	-2.8751	87.1230	-10.9130	18.8599	5.3876	64.4560	-59.0562	-36.6305	96.3064	-5.5334	29.7994	-1.7146	55.7062	-42.2890	-21.3742	
0.5000	-6.5067	3.1134	-82.5278	0.0000	1.2500	-0.0000	40.0767	-4.4309	-12.9089	54.5934	-17.4327	2.7434	0.0000	77.2088	2.2759	-11.8361	85.9491	-0.7112	7.2460	-0.0000	-21.9025	-0.2637	-2.7113	87.3078	-11.0034	18.9984	5.2917	64.5319	-59.0019	-36.5410	96.2418	-5.5447	30.0523	-1.7312	55.1717	-42.4079	-21.4477	
0.5170	-6.4099	2.4515	-82.8103	0.0000	1.2500	-0.0000	42.0746	-4.1614	-12.2525	59.8266	-16.8656	2.3537	0.0000	75.0785	1.9404	-12.3349	81.6053	-0.6202	7.8461	-0.0000	-21.9426	0.0864	-2.5311	87.5181	-11.0367	19.2473	5.2696	64.6749	-58.9958	-36.4066	96.2176	-5.5734	29.9771	-1.7818	55.0109	-42.5211	-21.4725	
0.5340	-6.2554	1.7606	-83.1765	0.0000	1.2500	-0.0000	44.3081	-3.8631	-11.6571	65.2196	-16.4400	1.8796	-0.0000	72.4511	1.4762	-12.9075	76.9335	-0.8352	8.7198	-0.0000	-21.9974	0.4333	-2.3288	87.7696	-11.0218	19.5445	5.2747	64.8937	-59.0162	-36.2442	96.2177	-5.6259	29.7352	-1.8435	55.0332	-42.6289	-21.4697	
0.5500	-6.1113	1.1396	-83.6397	0.0000	1.2500	-0.0000	46.7420	-3.5795	-11.2939	70.4182	-16.1578	1.5742	-0.0000	69.5056	0.9340	-13.5040	72.0798	-1.3720	9.5759	-0.0000	-22.0608	0.7354	-2.1147	88.1303	-10.9234	19.7689	5.2404	65.2535	-59.0409	-36.0901	96.2762	-5.7440	29.4974	-1.8358	55.0461	-42.7064	-21.4652	
0.5670	-5.9892	0.6467	-84.2479	0.0000	1.2500	-0.0000	49.4043	-3.3551	-11.3393	75.3874	-16.1279	1.5912	-0.0000	66.2287	0.3208	-14.1383	67.0288	-2.3155	10.3434	-0.0000	-22.1418	0.9618	-1.8878	88.6815	-10.6980	19.8433	5.1303	65.8496	-59.0663	-35.9436	96.4587	-5.9628	29.2909	-1.7007	55.0179	-42.7243	-21.4495	
